<svg width="21" height="21" viewBox="0 0 21 21" fill="none" xmlns="http://www.w3.org/2000/svg">
<path fill-rule="evenodd" clip-rule="evenodd" d="M11.8334 5.5H9.83339V9.5H5.83339V11.5H9.83339V15.5H11.8334V11.5H15.8334V9.5H11.8334V5.5ZM10.8334 0.5C5.31339 0.5 0.833389 4.98 0.833389 10.5C0.833389 16.02 5.31339 20.5 10.8334 20.5C16.3534 20.5 20.8334 16.02 20.8334 10.5C20.8334 4.98 16.3534 0.5 10.8334 0.5ZM10.8334 18.5C6.42339 18.5 2.83339 14.91 2.83339 10.5C2.83339 6.09 6.42339 2.5 10.8334 2.5C15.2434 2.5 18.8334 6.09 18.8334 10.5C18.8334 14.91 15.2434 18.5 10.8334 18.5Z" fill="#5C00DC"/>
</svg>
