<svg width="33" height="31" viewBox="0 0 33 31" fill="none" xmlns="http://www.w3.org/2000/svg">
<path fill-rule="evenodd" clip-rule="evenodd" d="M29.1765 10.767C29.9063 11.4744 31.0853 11.4744 31.7702 10.767C32.5 10.0597 32.5 8.99299 31.7702 8.28562C31.074 7.57826 29.9063 7.57826 29.1765 8.28562C28.4804 8.99299 28.4804 10.0597 29.1765 10.767ZM21.4965 3.34527C22.2263 4.05264 23.4053 4.05264 24.0902 3.34527C24.82 2.6379 24.82 1.57124 24.0902 0.86387C23.394 0.156501 22.2263 0.156501 21.4965 0.86387C20.8116 1.57124 20.8116 2.62668 21.4965 3.34527ZM23.1919 16.5607C23.9218 17.2681 25.1007 17.2681 25.7856 16.5607C26.5154 15.8533 26.5154 14.7867 25.7856 14.0793C25.0895 13.3719 23.9218 13.3719 23.1919 14.0793C22.4958 14.7867 22.4958 15.8533 23.1919 16.5607ZM7.92175 19.8056L7.59614 21.1081C7.47263 21.6021 6.9786 21.9277 6.46211 21.8154C6.13649 21.7481 5.81088 21.7144 5.51895 21.7144C3.99193 21.7144 2.90281 22.7474 2.90281 24.5776V30.4386H0.5V19.7832H2.88035V20.9846C3.61018 19.9628 4.73298 19.5025 6.06912 19.5025C6.79895 19.5137 7.37158 19.6035 7.92175 19.8056ZM14.6586 21.9053V30.4498H12.2446V21.9053H10.5828C10.0888 21.9053 9.68456 21.5123 9.68456 21.0407V19.7944H12.2446V17.3018C12.2446 15.1684 13.3561 13.4618 15.9274 13.4618C17.2298 13.4618 18.1618 13.7874 18.9926 14.259L18.4986 16.2126C17.9372 15.8983 16.8256 15.64 16.0846 15.64C15.1526 15.64 14.6474 16.2239 14.6474 17.2905V19.7832H18.4088V21.894H14.6586V21.9053Z" fill="#ED1A5D"/>
</svg>
