<svg width="12" height="12" viewBox="0 0 12 12" fill="none" xmlns="http://www.w3.org/2000/svg">
<path fill-rule="evenodd" clip-rule="evenodd" d="M8.50332 7.50335H7.97665L7.78998 7.32335C8.44332 6.56335 8.83665 5.57668 8.83665 4.50335C8.83665 2.11001 6.89665 0.170013 4.50332 0.170013C2.10998 0.170013 0.169983 2.11001 0.169983 4.50335C0.169983 6.89668 2.10998 8.83668 4.50332 8.83668C5.57665 8.83668 6.56332 8.44335 7.32332 7.79001L7.50332 7.97668V8.50335L10.8366 11.83L11.83 10.8367L8.50332 7.50335ZM4.50332 7.50335C2.84332 7.50335 1.50332 6.16335 1.50332 4.50335C1.50332 2.84335 2.84332 1.50335 4.50332 1.50335C6.16332 1.50335 7.50332 2.84335 7.50332 4.50335C7.50332 6.16335 6.16332 7.50335 4.50332 7.50335Z" fill="#777777"/>
</svg>
